<?xml version="1.0" encoding="UTF-8" standalone="no"?>
<!-- Created with Inkscape (http://www.inkscape.org/) -->

<svg
   xmlns:dc="http://purl.org/dc/elements/1.1/"
   xmlns:cc="http://creativecommons.org/ns#"
   xmlns:rdf="http://www.w3.org/1999/02/22-rdf-syntax-ns#"
   xmlns:svg="http://www.w3.org/2000/svg"
   xmlns="http://www.w3.org/2000/svg"
   xmlns:xlink="http://www.w3.org/1999/xlink"
   xmlns:sodipodi="http://sodipodi.sourceforge.net/DTD/sodipodi-0.dtd"
   xmlns:inkscape="http://www.inkscape.org/namespaces/inkscape"
   width="500"
   height="739.09851"
   version="1.1"
   viewBox="0 0 500 739.0985"
   id="svg197"
   sodipodi:docname="IslamVectorNew.svg"
   inkscape:version="0.92.4 5da689c313, 2019-01-14">
  <sodipodi:namedview
     pagecolor="#ffffff"
     bordercolor="#666666"
     borderopacity="1"
     objecttolerance="10"
     gridtolerance="10"
     guidetolerance="10"
     inkscape:pageopacity="0"
     inkscape:pageshadow="2"
     inkscape:window-width="1366"
     inkscape:window-height="678"
     id="namedview199"
     showgrid="false"
     inkscape:zoom="0.15590647"
     inkscape:cx="-660.84176"
     inkscape:cy="-301.00823"
     inkscape:window-x="0"
     inkscape:window-y="0"
     inkscape:window-maximized="1"
     inkscape:current-layer="svg197" />
  <metadata
     id="metadata2">
    <rdf:RDF>
      <cc:Work
         rdf:about="">
        <dc:format>image/svg+xml</dc:format>
        <dc:type
           rdf:resource="http://purl.org/dc/dcmitype/StillImage" />
        <dc:title />
      </cc:Work>
    </rdf:RDF>
  </metadata>
  <defs
     id="defs11">
    <linearGradient
       id="linearGradient974">
      <stop
         stop-color="#d18b10"
         offset="0"
         id="stop4" />
      <stop
         stop-color="#614008"
         offset="1"
         id="stop6" />
    </linearGradient>
    <radialGradient
       id="radialGradient1149"
       cx="1538.3"
       cy="7611.3999"
       r="40.353001"
       gradientTransform="matrix(1,0,0,0.66575,0,2544.1)"
       gradientUnits="userSpaceOnUse"
       xlink:href="#linearGradient974" />
    <radialGradient
       id="radialGradient1151"
       cx="1538.3"
       cy="7611.3999"
       r="40.353001"
       gradientTransform="matrix(-1,0,0,0.66575,2641.4,2568.2)"
       gradientUnits="userSpaceOnUse"
       xlink:href="#linearGradient974" />
  </defs>
  <g
     transform="matrix(0.40717122,0,0,0.40717122,-285.83045,-2705.9291)"
     id="g195">
    <g
       id="g43">
      <path
         d="m 1059.8,8072.1 -45.78,-76.681 -67.525,-59.514 -85.837,-148.78 -24.034,-75.537 12.589,-60.658 -3.4335,-16.023 17.167,-117.88 8.0115,-119.03 32.046,-65.236 -24.034,-96.138 38.913,-113.3 30.901,8.0114 53.791,-18.312 c 0,0 65.236,-52.647 109.87,-43.491 44.635,9.156 194.56,36.624 194.56,36.624 0,0 135.05,8.0114 139.63,4.5779 4.578,-3.4334 50.358,-21.745 50.358,-21.745 0,0 5.7224,45.78 53.791,62.947 48.069,17.168 88.126,1.1445 88.126,1.1445 0,0 -77.826,-21.745 -73.248,-35.479 4.578,-13.734 42.346,-62.947 57.225,-57.225 14.878,5.7225 68.67,49.213 68.67,49.213 0,0 28.612,125.89 24.034,155.65 -4.578,29.757 13.734,186.55 45.78,220.89 32.046,34.335 21.745,140.77 21.745,140.77 0,0 19.456,99.571 9.1559,117.88 -10.3,18.312 -94.993,181.97 -94.993,181.97 l -90.415,85.837 -28.612,68.67 c 0,0 -32.046,-49.213 -64.092,-65.236 -32.046,-16.023 -21.745,-32.046 -78.97,-36.624 -57.225,-4.578 -98.427,6.867 -112.16,11.445 -13.734,4.578 -78.97,-20.601 -113.3,-12.589 -34.335,8.0115 -136.19,58.369 -149.93,93.848 z"
         id="path13"
         inkscape:connector-curvature="0"
         style="fill:#edaf81" />
      <path
         d="m 906.39,7868.4 -48.557,-84.165 -16.186,-77.691 17.804,-67.98 11.33,22.66 25.897,95.495 46.938,48.557 c 0,0 69.598,11.33 84.165,17.804 14.567,6.4742 103.59,12.948 103.59,12.948 l 82.546,-55.031 42.083,-64.742 -17.804,135.96 -4.8557,82.546 82.547,38.845 -8.0928,19.423 -61.505,-17.804 -97.114,16.186 -77.691,67.98 -14.567,21.041 -43.701,-92.258 -77.691,-66.361 z"
         id="path15"
         inkscape:connector-curvature="0"
         style="fill:#c78453;stroke:#000000;stroke-width:1px" />
      <path
         d="m 859.46,7653.1 c 0,0 50.175,260.59 131.1,317.24 80.928,56.65 67.98,-3.2371 152.14,25.897 84.165,29.134 145.67,-25.897 145.67,-25.897 l -92.258,-97.114 c 0,0 -22.66,-27.516 -3.2372,-40.464 19.423,-12.948 -61.505,6.4742 -61.505,6.4742 l -101.97,-1.6186 -105.21,-40.464 -32.371,-55.031 z"
         id="path17"
         inkscape:connector-curvature="0"
         style="fill:#de9969" />
      <path
         d="m 954.95,7361.7 c 0,0 267.06,38.846 229.84,118.15 -37.227,79.309 -132.72,42.082 -192.61,48.557 -59.887,6.4742 -124.63,16.186 -124.63,16.186 l -11.33,-1.6186 c -0.41052,-2.8736 17.597,-171.4 98.732,-181.28 z"
         id="path19"
         inkscape:connector-curvature="0"
         style="fill:#edce81" />
      <path
         d="m 1451.8,7465.3 c 0,0 63.124,-129.48 -16.186,-161.86 -79.31,-32.371 -508.23,-6.4742 -548.69,129.48 -40.464,135.96 -25.897,97.114 -25.897,97.114 0,0 -22.66,-202.32 -24.278,-216.89 -1.6186,-14.567 33.99,-178.04 33.99,-178.04 0,0 90.639,22.66 108.44,24.278 17.804,1.6186 260.59,3.2371 283.25,3.2371 22.66,0 165.09,-9.7113 186.13,-4.8556 21.041,4.8556 135.96,27.516 139.2,33.99 3.2371,6.4742 90.639,171.57 93.876,179.66 3.237,8.09 3.2371,110.06 3.2371,110.06 0,0 -127.87,35.608 -142.43,33.99 -14.56,-1.618 -90.639,-50.175 -90.639,-50.175 z"
         id="path21"
         inkscape:connector-curvature="0"
         style="fill:#de9969" />
      <path
         d="m 1605.6,7452.4 c 0,0 61.505,-24.278 3.2371,-84.165 -58.268,-59.887 -43.701,-203.94 -137.58,-171.57 -93.876,32.371 -419.21,32.371 -500.13,1.6185 -80.928,-30.753 -84.165,55.031 -79.309,67.98 4.8557,12.948 -14.567,-6.4742 -14.567,-6.4742 0,0 16.186,-67.98 17.804,-76.072 1.6186,-8.0928 29.134,-69.598 29.134,-69.598 l 17.804,14.567 c 0,0 58.268,-3.2371 69.598,-9.7114 11.33,-6.4742 38.845,-35.608 50.175,-38.845 11.33,-3.237 84.165,1.6186 103.59,4.8557 19.425,3.2371 87.402,22.66 105.21,22.66 17.804,0 69.598,-1.6186 90.639,-3.2371 21.041,-1.6186 89.021,1.6185 110.06,0 21.041,-1.6186 42.082,-24.278 42.082,-24.278 l 116.54,-37.227 114.92,56.65 53.412,228.22 -1.6186,169.95 c 0,0 -66.361,21.041 -76.072,21.041 -9.7113,0 -105.21,-27.516 -105.21,-27.516 z"
         id="path23"
         inkscape:connector-curvature="0"
         style="fill:#c78453" />
      <path
         d="m 932.2,7799.6 c 0,0 266.65,84.41 242.11,126.7 -24.538,42.289 -172.52,93.946 -242.11,-126.7 z"
         id="path25"
         inkscape:connector-curvature="0"
         style="fill:#edaf81" />
      <path
         d="m 1448.6,7803.6 98.732,236.31 29.134,29.134 17.804,-58.268 c 0,0 -8.0928,-55.031 42.082,-71.217 50.175,-16.186 37.227,-12.948 37.227,-12.948 l -33.99,-25.897 c 0,0 98.732,-69.598 108.44,-69.598 9.7114,0 -226.6,8.0928 -226.6,8.0928 z"
         id="path27"
         inkscape:connector-curvature="0"
         style="fill:#de9969" />
      <path
         d="m 776.91,7575.4 32.371,4.0464 30.753,24.278 12.139,33.18 -10.521,48.557 4.0464,64.742 c 0,0 26.706,55.84 28.325,59.887 1.619,4.047 33.18,66.361 41.273,76.072 8.0928,9.7114 55.031,77.691 55.031,77.691 l 55.84,46.938 25.897,38.036 5.6649,21.041 v 10.521 l 31.562,-33.18 c 0,0 45.32,-40.464 48.557,-42.083 3.2371,-1.6185 64.742,-28.325 64.742,-28.325 l 75.263,5.6649 45.32,10.521 c 0,0 56.65,-21.041 74.454,-18.613 17.804,2.4279 64.742,9.7114 79.309,19.423 14.567,9.7114 88.212,72.835 93.067,80.928 4.855,8.093 14.567,-28.325 14.567,-28.325 0,0 38.846,-63.124 67.17,-75.263 28.325,-12.139 32.371,-35.608 55.031,-65.552 22.66,-29.943 81.737,-125.44 84.974,-143.24 3.2372,-17.804 3.2372,-135.96 -4.8556,-139.2 -8.0928,-3.24 -16.995,-8.9021 -16.995,-8.9021 l 24.278,-30.753 41.273,-8.9021 4.8556,12.139 -15.376,39.655 c 0,0 -9.7113,15.376 -3.2371,34.799 6.4742,19.423 0,76.882 -7.2835,80.928 -7.2835,4.046 -19.423,58.268 -13.758,80.928 5.665,22.66 -6.4742,122.2 -21.85,140.01 -15.3758,17.81 -56.65,134.34 -56.65,152.14 0,17.804 -6.4742,43.701 -6.4742,43.701 0,0 -12.948,-27.516 -21.041,-18.613 -8.0928,8.902 -99.541,168.33 -123.82,174 -24.279,5.67 -82.547,63.124 -89.83,75.263 -7.283,12.139 -8.0928,35.608 -8.0928,35.608 l -23.469,-21.85 -8.9021,20.232 -29.134,-1.6186 -18.614,25.897 -22.66,-8.9021 c 0,0 -3.2371,-15.376 -12.948,-15.376 -9.7113,0 -89.021,3.2371 -97.923,3.2371 -8.902,0 -16.186,9.7113 -16.186,9.7113 l -18.613,16.186 -11.33,-33.99 -24.278,8.9021 -16.186,-20.232 -23.469,11.33 -11.33,-37.227 -72.026,-56.65 -79.309,-81.737 -61.505,-102.78 -21.851,10.521 -5.665,-40.464 -48.557,-131.91 -29.943,-89.021 v -80.928 l -12.948,-72.835 -12.948,-42.892 4.8557,-59.887 z"
         id="path29"
         inkscape:connector-curvature="0"
         style="fill:#3e2c22" />
      <path
         d="m 789.7,7580 c 0,0 61.803,-11.445 61.803,16.023 0,27.468 -6.867,137.34 -6.867,137.34 0,0 66.381,400.57 162.52,535.62 96.138,135.05 12.537,8.8886 12.537,8.8886 l -56.65,-76.882 -38.845,-65.552 -22.66,16.186 -16.186,-69.598 -34.799,-89.021 -28.325,-90.639 -9.7114,-61.505 c 0,0 7.2835,-52.603 5.665,-55.84 -1.6186,-3.2372 -20.232,-65.552 -20.232,-65.552 l 0.80928,-74.454 -5.665,-39.655 -16.186,-24.278 z"
         id="path31"
         inkscape:connector-curvature="0"
         style="fill:#edce81" />
      <path
         d="m 1224.4,7756.7 -4.0464,50.985 -14.567,15.376 30.753,-6.4742 3.2371,-75.263 z"
         id="path33"
         inkscape:connector-curvature="0"
         style="fill:#de9969" />
      <path
         d="m 757.49,7536.6 -16.995,-101.97 4.0464,-67.98 2.4278,-61.505 -15.376,-94.686 c 0,0 12.948,-74.454 16.186,-76.072 3.2371,-1.6185 9.7114,-42.082 9.7114,-42.082 l -4.8557,-33.99 c 0,0 -18.613,-11.33 -21.851,-9.7113 -3.2371,1.6185 -16.995,1.6185 -16.186,-1.6186 0.809,-3.2371 0.80928,-23.469 0.80928,-23.469 l 33.18,9.7114 c 0,0 14.567,12.139 20.232,3.2371 5.665,-8.9021 14.567,-49.366 21.041,-53.412 6.474,-4.046 29.134,-46.938 29.134,-46.938 l 12.139,-18.613 7.2835,-38.846 29.943,-52.603 37.227,-26.706 c 0,0 35.608,-38.845 39.655,-41.273 4.0464,-2.4279 41.273,-21.851 41.273,-21.851 0,0 60.69602,-38.036 110.87002,-37.227 50.175,0.8093 67.17,-1.6185 67.17,-1.6185 0,0 50.175,-48.557 149.72,-42.892 99.541,5.6649 132.72,30.753 139.2,42.082 6.4743,11.33 73.644,0 73.644,0 0,0 131.91,32.371 153.76,67.17 21.851,34.799 29.943,43.701 29.943,43.701 0,0 67.17,25.897 72.835,70.407 5.6649,44.51 -0.8093,41.273 19.423,67.17 20.232,25.897 33.18,50.985 33.18,50.985 l 10.521,2.4278 c 0,0 17.804,-17.804 20.232,-24.278 2.4278,-6.4743 5.6649,-42.083 5.6649,-42.083 l 21.041,20.232 7.2835,38.036 -23.469,42.892 26.706,16.186 18.614,12.948 -4.8557,20.232 -17.804,6.4743 c 0,0 -12.139,-8.0928 -18.613,-8.0928 -6.474,0 -29.134,-8.0928 -22.66,13.758 6.4742,21.851 18.613,68.789 21.041,83.356 2.4279,14.567 1.6186,80.119 -4.0464,101.16 -5.6649,21.041 2.4279,139.2 2.4279,139.2 l -6.4743,59.887 -14.567,54.222 -9.7113,15.376 -10.521,-37.227 -10.521,-40.464 -12.948,21.041 -20.232,18.613 -23.469,-10.521 -25.897,-50.985 -25.088,-99.541 -4.0464,-95.495 -8.0928,-90.639 -21.041,-61.505 -51.794,-40.464 -38.845,7.2835 -26.706,26.706 3.2372,25.897 51.794,27.516 c 0,0 -22.66,8.0928 -27.516,7.2835 -4.8557,-0.8093 -63.124,-16.186 -63.124,-16.186 l -37.227,-57.459 c 0,0 -84.165,42.892 -183.71,31.562 -99.545,-11.33 -216.08,-48.557 -216.08,-48.557 l -71.217,36.418 -29.94302,23.469 -46.938,2.4278 -19.423,-12.139 -30.753,49.366 c 0,0 -18.613,42.082 -13.758,67.17 4.855,25.088 7.2835,70.407 8.0928,73.644 0.80928,3.2371 11.33,33.99 11.33,33.99 l -29.943,47.748 -8.0928,69.598 -2.4278,89.021 -33.18,0.8092 -37.227,-82.546 -24.278,74.454 z"
         id="path35"
         inkscape:connector-curvature="0"
         style="fill:#3e2c22" />
      <path
         d="m 1186.4,7081.7 c 0,0 258.97,46.938 309.14,-19.423 50.175,-66.361 46.938,-105.21 46.938,-105.21 0,0 -19.423,69.598 -87.402,82.546 -67.979,12.948 -19.423,-27.516 -19.423,-27.516 0,0 -40.464,12.948 -50.175,29.134 -9.7113,16.186 1.6186,-46.938 22.66,-45.32 21.041,1.6186 -77.691,-29.134 -137.58,33.99 -59.887,63.124 -9.7114,-218.51 72.835,-237.93 82.546,-19.423 -226.6,8.0928 -157,289.72 z"
         id="path37"
         inkscape:connector-curvature="0"
         style="fill:#33241c" />
      <path
         d="m 909.63,6813.1 c 0,0 67.98,-72.835 135.96,-71.217 67.98,1.6185 116.54,4.8556 116.54,4.8556 0,0 71.217,-35.608 157,-29.134 85.784,6.4742 216.89,29.134 249.26,126.25 32.371,97.114 -4.8556,153.76 -4.8556,153.76 l 90.639,-76.072 -8.0928,69.598 c 0,0 63.124,-14.567 71.217,-21.041 8.0928,-6.4743 11.33,53.412 1.6186,72.835 -9.7114,19.423 -4.8557,35.608 19.423,56.65 24.2787,21.042 50.175,195.85 30.753,275.16 -19.422,79.31 46.938,-84.165 46.938,-84.165 l -22.66,189.37 32.371,-24.278 14.567,64.742 21.041,12.948 17.804,-165.09 -1.6186,-126.25 8.0928,-66.361 -19.423,-40.464 c 0,0 -12.948,-58.268 21.041,-53.412 33.99,4.8556 27.516,9.7113 27.516,9.7113 l 4.8556,-29.134 -17.804,-22.66 -27.516,-3.2371 24.278,-35.608 1.6185,-46.938 -22.66,-24.278 -19.423,45.32 -12.948,27.516 -25.897,-56.65 -33.99,-29.134 -14.567,-71.217 -59.887,-46.938 c 0,0 -48.557,-58.268 -66.361,-64.742 -17.804,-6.4743 -98.732,-35.608 -98.732,-35.608 l -85.784,-4.8557 -43.701,-29.134 -87.402,-9.7113 -127.87,8.0928 -50.175,29.134 -103.59,8.0928 -93.876,46.938 -48.557,56.65 z"
         id="path39"
         inkscape:connector-curvature="0"
         style="fill:#33241c" />
      <path
         d="m 1394.4,7532.5 33.18,-50.175 c 0,0 14.567,-3.2371 21.85,-4.8556 7.2835,-1.6186 40.464,-21.041 40.464,-21.041 0,0 48.557,-40.464 183.71,35.608 135.153,76.072 -1.6186,12.948 -1.6186,12.948 l -149.72,12.139 -125.44,20.232 z"
         id="path41"
         inkscape:connector-curvature="0"
         style="fill:#3e2c22" />
    </g>
    <path
       d="m 775.97,7545.6 16.318,-77.071 36.336,73.042 68.663,-0.5484 128.18,-11.445 167.1,6.867 68.67,25.179 89.271,-9.1559 114.45,-22.89 162.52,-25.179 149.71,1.358 19.423,-0.8096 28.324,-36.418 19.999,56.47 v 48.069 l -39.421,4.7147 -36.116,38.776 -13.734,-19.456 -32.046,-52.647 -75.537,-19.456 -123.61,8.0115 -104.15,27.468 -34.335,60.658 18.312,77.826 c 0,0 -6.867,24.034 -10.3,19.456 -3.4335,-4.578 -41.202,-88.126 -41.202,-88.126 0,0 -38.913,-3.4335 -43.491,-2.289 -4.578,1.1445 -32.046,4.578 -32.046,4.578 l -20.601,51.502 -12.589,-54.936 -26.323,-54.936 c 0,0 -84.693,-16.023 -89.27,-17.167 -4.578,-1.1445 -124.75,-1.1445 -124.75,-1.1445 l -89.271,19.456 -30.901,40.057 -12.589,64.092 -24.034,-43.491 -10.3,-41.202 c 0,0 -14.878,-17.167 -22.89,-17.167 -8.012,0 -34.335,-10.3 -34.335,-10.3 z"
       id="path45"
       inkscape:connector-curvature="0"
       style="fill:#1a1a1a" />
    <path
       d="m 1825.7,7625.6 43.701,-110.06 c 0,0 46.938,98.732 32.371,132.72 -14.567,33.99 -27.516,131.1 -27.516,131.1 l -71.217,89.021 c 0,0 -4.8557,-53.412 -4.8557,-59.887 0,-6.4743 12.948,-66.361 12.948,-66.361 l 16.186,-27.516 -8.0928,-80.928 z"
       id="path47"
       inkscape:connector-curvature="0"
       style="fill:#edaf81" />
    <path
       d="m 1127.3,8363.6 c 0,0 35.608,13.758 33.18,31.562 -2.4279,17.804 19.423,11.33 19.423,11.33 0,0 8.902,0.8093 14.567,10.521 5.665,9.7114 24.278,4.0464 24.278,4.0464 0,0 12.948,4.8557 14.567,16.995 1.6186,12.139 23.469,-13.758 23.469,-13.758 l 89.83,3.2371 30.753,-0.8093 16.186,7.2835 23.59,-23.162 18.312,1.7167 22.89,-17.454 13.448,6.0086 -1.7168,15.737 -11.445,-6.0086 -21.459,11.159 -5.7224,10.873 -21.745,-9.7282 c 0,0 -12.59,24.32 -12.876,26.037 -0.2861,1.7168 -18.598,-8.5837 -19.456,-9.7282 -0.858,-1.1445 -16.309,-8.0114 -16.309,-8.0114 l -99.571,-1.4306 -8.5837,2.2889 -2.5751,5.1503 c 0,0 -32.332,15.451 -32.618,14.306 -0.2861,-1.1444 -6.5808,-25.465 -6.5808,-25.465 0,0 -10.873,-0.8583 -12.59,-0.2861 -1.7167,0.5723 -24.034,-5.7224 -24.034,-5.7224 l -4.8641,-8.5838 -20.029,9.4421 -6.5808,-18.884 -13.448,-30.329 z"
       id="path49"
       inkscape:connector-curvature="0"
       style="fill:#edce81" />
    <path
       d="m 1318.3,8428 c 0,0 25.161,-0.6975 50.158,-3.4667 4.6249,-0.5124 3.1145,10.375 6.8962,13.914 5.1924,4.859 13.084,14.171 19.526,12.047 4.9744,-1.6403 6.0025,-30.291 11.129,-32.59 3.7634,-1.6876 25.246,12.63 28.802,10.563 3.6264,-2.1077 10.768,-24.249 14.102,-26.789 3.9932,-3.0425 17.295,22.921 20.563,20.38 3.8872,-3.0226 10.96,-37.694 14.072,-40.168 25.766,-20.489 16.247,-21.936 75.236,-60.326 6.8777,-4.476 14.547,-11.097 22.801,-19.521 33.046,-33.725 75.466,-96.342 114,-165.86 4.4021,-7.9415 22.689,33.364 19.792,20.596 -4.6102,-20.316 9.78,-43.393 10.239,-50.398 0.8898,-13.594 8.7329,-45.117 16.096,-61.138 30.93,-67.302 53.388,-132.41 56.272,-176.9"
       id="path51"
       inkscape:connector-curvature="0"
       style="fill:none;stroke:#1c1f24;stroke-width:20" />
    <g
       id="g59">
      <path
         d="m 1846.4,7005.7 c 2.8325,-2.0232 28.73,-63.528 28.73,-63.528 0,0 13.758,5.665 15.376,8.0928 1.6185,2.4278 8.0928,49.366 6.8789,52.198 -1.214,2.8325 -25.897,36.822 -30.348,37.227 -4.4511,0.4047 -22.255,-0.8093 -21.041,-3.2371 1.214,-2.4278 0.4046,-30.753 0.4046,-30.753 z"
         id="path53"
         inkscape:connector-curvature="0"
         style="fill:#33241c" />
      <path
         d="m 1826.6,7630.3 c 0,0 29.757,50.358 17.168,75.537 -12.59,25.179 -4.578,54.936 -4.578,54.936 0,0 -34.335,42.346 -30.901,84.692 3.434,42.346 -12.589,13.734 -12.589,13.734 0,0 6.867,-83.548 6.867,-88.126 0,-4.578 20.601,-50.358 20.601,-50.358 l -2.289,-85.837 z"
         id="path55"
         inkscape:connector-curvature="0"
         style="fill:#c78453" />
      <path
         d="m 1866.7,7609.7 c 0,0 21.745,-1.1445 28.612,19.456 6.867,20.6005 -3.4335,37.768 -3.4335,37.768 l -25.179,-30.901 z"
         id="path57"
         inkscape:connector-curvature="0"
         style="fill:#a1733e" />
    </g>
    <g
       id="g69"
       style="fill:none;stroke:#1c1f24;stroke-width:20">
      <path
         d="m 1798,7868.4 c 0,0 -4.578,-98.426 16.023,-133.91 20.601,-35.484 3.4335,-104.15 3.4335,-104.15 0,0 67.525,-96.138 57.225,-260.94 -10.3,-164.81 30.901,-144.21 -5.7225,-232.33 -36.624,-88.126 45.78,-50.358 45.78,-50.358 0,0 16.023,-28.612 -8.0114,-40.057 -24.034,-11.445 -57.225,-10.3 -61.803,-1.1444 -1.5437,-65.037 -25.249,-92.669 -59.514,-124.75 8.2821,-65.759 -30.355,-90.464 -69.814,-114.45 0,0 -74.392,-119.03 -258.66,-111.02 -34.335,-48.069 -138.62,-38.913 -138.62,-38.913"
         id="path61"
         inkscape:connector-curvature="0" />
      <path
         d="m 1847.2,7002 c 13.422,-11.462 23.889,-30.311 25.179,-72.103 15.268,11.586 29.479,24.652 29.757,57.225 0,0 -18.312,44.635 -37.768,51.502"
         id="path63"
         inkscape:connector-curvature="0" />
      <path
         d="m 1865.5,7499.9 c 0,0 57.225,84.693 25.179,169.39 0,0 6.867,138.48 -92.704,199.14"
         id="path65"
         inkscape:connector-curvature="0" />
      <path
         d="m 1856.4,7615.5 c 0,0 41.398,55.074 29.953,108.87"
         id="path67"
         inkscape:connector-curvature="0" />
    </g>
    <g
       id="g81">
      <path
         d="m 1456.7,7808.5 168.33,118.15 -27.516,-56.65 43.701,6.4743 -22.66,-21.041 111.68,-17.804 -53.412,-3.2371 76.072,-33.99 -17.804,-24.278 -165.09,48.557 z"
         id="path71"
         inkscape:connector-curvature="0"
         style="fill:#c78453" />
      <path
         d="m 1236.6,7744.5 -8.9021,63.124 -22.66,14.567 10.521,11.33 c 0,0 34.799,-1.6185 35.608,-7.2835 0.8093,-5.6649 0.8093,-106.82 0.8093,-106.82 l -21.85,16.186 z"
         id="path73"
         inkscape:connector-curvature="0"
         style="fill:#c78453" />
      <path
         d="m 801.15,7487.3 c 0,0 10.3,67.525 56.08,78.97 45.78,11.445 41.774,8.5837 41.774,8.5837 0,0 -88.698,-12.589 -89.843,-8.5837 -1.1445,4.0057 -8.0115,17.167 -10.873,10.3 -2.8612,-6.867 -19.456,-15.451 -19.456,-18.312 0,-2.8613 -1.7167,-34.335 -1.1445,-36.624 0.57224,-2.289 16.023,-37.196 16.023,-37.196 z"
         id="path75"
         inkscape:connector-curvature="0"
         style="fill:#edce81" />
      <path
         d="m 746.21,7515.9 c 0,0 -29.757,59.514 -27.468,73.248 2.289,13.734 4.578,86.982 4.578,86.982 0,0 26.875,179.93 86.982,189.99 28.698,4.7994 2.2967,-68.553 4.578,-66.381 l -11.445,-70.959 -13.734,-50.358 6.867,-57.225 z"
         id="path77"
         inkscape:connector-curvature="0"
         style="fill:#edaf81" />
      <path
         d="m 765.58,7622.3 c 0,0 -13.08,159.59 46.938,234.69 22.772,28.494 -51.794,-33.99 -51.794,-33.99 l -35.608,-111.68 27.516,-82.546 z"
         id="path79"
         inkscape:connector-curvature="0"
         style="fill:#edce81" />
    </g>
    <path
       d="m 792.29,7468.6 c 0,0 -31.563,76.073 -10.521,96.305 21.041,20.232 29.943,12.949 29.943,12.949 0,0 45.829,7.2839 51.494,36.418 5.6649,29.134 11.601,133.15 39.116,165.52 27.515,32.371 183.39,83.755 258.66,41.673 75.263,-42.083 99.68,-139.69 113.44,-170.44 13.758,-30.753 43.905,-22.186 43.905,-22.186 0,0 30.752,-9.7115 44.51,21.041 13.758,30.753 40.466,119.77 115.73,161.86 75.263,42.082 227.41,-4.8553 254.92,-37.226 27.51,-32.3707 33.181,-131.1 38.846,-160.24 5.665,-29.134 33.182,-36.418 33.182,-36.418 0,0 8.9021,7.2828 29.943,-12.949 21.041,-20.232 -10.522,-96.305 -10.522,-96.305 l -28.324,36.418 c 0,0 -8.0926,-0.8091 -113.3,-2.4277 -105.21,-1.6185 -263.83,29.944 -285.68,40.465 -21.85,10.521 -79.311,15.375 -79.311,15.375 0,0 -76.882,-4.8544 -98.732,-15.375 -21.851,-10.521 -171.75,-26.652 -275.38,-8.419 -93.761,16.497 -115.59,7.0057 -115.59,7.0057 z"
       id="path83"
       inkscape:connector-curvature="0"
       style="fill:none;stroke:#1c1f24;stroke-width:20" />
    <path
       d="m 1469.7,7612.6 c 0,0 22.068,139.9 178.04,119.77 100.35,-12.948 98.732,-56.65 98.732,-56.65 l -106.82,-58.268 c 0,0 -89.021,111.68 -169.95,-4.8556 z"
       id="path85"
       inkscape:connector-curvature="0"
       style="fill:#de9969" />
    <path
       d="m 1393.6,7662 c 0,0 -12.139,-56.65 7.2835,-80.119 19.423,-23.469 100.35,-58.268 211.22,-57.459 110.87,0.8093 106.82,11.33 136.77,50.175 29.943,38.845 -12.948,189.37 -12.948,189.37 0,0 -275.16,178.04 -342.33,-101.97 z"
       id="path87"
       inkscape:connector-curvature="0"
       style="fill:none;stroke:#1c1f24;stroke-width:20" />
    <path
       d="m 1446.6,7497 c 0,0 32.046,-48.069 130.47,-32.046 -10.873,1.7167 -24.034,4.5779 -24.034,4.5779 26.737,11.628 37.066,1.754 57.797,16.595 -21.701,-8.2657 -17.592,-0.5195 -46.352,-1.1446 l 16.023,9.7282 c 0,0 -49.786,-17.167 -172.25,33.19 -17.74,3.4335 0.5723,-21.745 0.5723,-21.745 0,0 18.312,-25.179 21.173,-23.462 2.8613,1.7168 16.595,14.306 16.595,14.306 z"
       id="path89"
       inkscape:connector-curvature="0"
       style="fill:#33241c" />
    <path
       d="m 1397.6,7542.2 c -4.8755,-19.644 15.37,-46.562 45.32,-69.598 l -5.665,19.423 c 0,0 75.263,-108.44 248.45,10.521 -110.06,-2.4279 -288.1,39.655 -288.1,39.655 z"
       id="path91"
       inkscape:connector-curvature="0"
       style="fill:none;stroke:#1c1f24;stroke-width:20" />
    <path
       d="m 1322.4,8428 c 0,0 -48.63,-0.6975 -73.627,-3.4667 -4.6249,-0.5124 -3.1145,10.375 -6.8962,13.914 -5.1924,4.859 -13.084,14.171 -19.526,12.047 -4.9744,-1.6403 -6.0025,-30.291 -11.129,-32.59 -3.7634,-1.6876 -25.246,12.63 -28.802,10.563 -3.6264,-2.1077 -10.768,-24.249 -14.102,-26.789 -3.9932,-3.0425 -17.295,22.921 -20.563,20.38 -3.8872,-3.0226 -10.96,-37.694 -14.072,-40.168 -25.766,-20.489 -16.247,-21.936 -75.236,-60.326 -6.8777,-4.476 -14.547,-11.097 -22.801,-19.521 -33.046,-33.725 -75.466,-96.342 -114,-165.86 -4.4021,-7.9415 -22.689,33.364 -19.792,20.596 4.6102,-20.316 -9.78,-43.393 -10.239,-50.398 -0.8898,-13.594 -8.7329,-45.117 -16.096,-61.138 -30.93,-67.302 -53.388,-132.41 -56.272,-176.9"
       id="path93"
       inkscape:connector-curvature="0"
       style="fill:none;stroke:#1c1f24;stroke-width:20" />
    <path
       d="m 910.41,6811.6 -42.054,14.371 -29.943,52.602 -7.2832,38.846 -12.141,18.613 c 0,0 -22.659,42.893 -29.133,46.94 -6.474,4.047 -15.376,44.51 -21.041,53.412 -5.665,8.9021 -20.232,-3.2383 -20.232,-3.2383 l -33.182,-9.7109 c 0,-1e-4 6.9e-4,20.232 -0.80859,23.469 -0.80928,3.237 12.948,3.2376 16.186,1.6191 3.2371,-1.6186 21.852,9.711 21.852,9.711 l 4.8555,33.99 c 0,0 -6.4738,40.464 -9.7109,42.082 -3.2371,1.6186 -16.186,76.072 -16.186,76.072 l 15.375,94.686 -2.4277,61.506 -4.0469,67.98 13.873,83.234 12.447,18.67 20.602,-82.404 c 0,0 -38.913,-151.07 -4.5781,-194.56 34.3349,-43.49 25.18,-38.912 25.18,-38.912 0,0 -103.01,44.636 27.467,-296.42 17.746,-46.39 82.343,-71.311 74.93,-112.55 z"
       id="path95"
       inkscape:connector-curvature="0"
       style="fill:#edce81" />
    <g
       id="g103"
       style="fill:none;stroke:#1c1f24;stroke-width:20">
      <path
         d="m 819.21,7868.4 c 0,0 4.578,-98.426 -16.023,-133.91 -20.601,-35.484 -3.4335,-104.15 -3.4335,-104.15 0,0 -67.525,-96.138 -57.225,-260.94 10.3,-164.81 -30.901,-144.21 5.7225,-232.33 36.624,-88.126 -18.855,-91.968 -26.357,-85.966 -9.4872,7.5897 -9.7928,-27.109 -9.7928,-27.109 0,0 55.606,12.359 60.184,21.515 1.5437,-65.037 25.249,-92.669 59.514,-124.75 -8.2821,-65.759 30.355,-90.464 69.814,-114.45 0,0 74.392,-119.03 258.66,-111.02 34.335,-48.069 163.23,-38.913 163.23,-38.913"
         id="path97"
         inkscape:connector-curvature="0" />
      <path
         d="m 751.68,7499.9 c 0,0 -57.225,84.693 -25.179,169.39 0,0 -6.867,138.48 92.704,199.14"
         id="path99"
         inkscape:connector-curvature="0" />
      <path
         d="m 760.84,7615.5 c 0,0 -41.398,55.074 -29.953,108.87"
         id="path101"
         inkscape:connector-curvature="0" />
    </g>
    <g
       id="g111">
      <path
         d="m 946.86,7517.1 18.613,-27.516 37.227,-14.567 c 0,0 41.273,-8.9021 78.5,9.7114 37.227,18.613 89.021,17.804 94.686,12.139 5.6649,-5.665 13.758,-15.376 13.758,-15.376 0,0 29.134,1.6185 33.18,20.232 4.0464,18.614 17.804,39.655 4.8557,41.273 -12.948,1.6186 -63.124,-11.33 -151.34,-12.139 -88.212,-0.8093 -128.68,-1.6185 -128.68,-1.6185 z"
         id="path105"
         inkscape:connector-curvature="0"
         style="fill:#3e2c22" />
      <path
         d="m 965.47,7515.5 c 0,0 6.4742,-31.562 71.217,-29.134 64.742,2.4279 7.2836,-12.139 7.2836,-12.139 l -62.315,5.665 -41.273,26.706 c 0,0 2.4278,16.995 12.139,16.995 9.7114,0 12.948,-8.0928 12.948,-8.0928 z"
         id="path107"
         inkscape:connector-curvature="0"
         style="fill:#edce81" />
      <path
         d="m 1133.6,7504.4 c 0,0 -53.791,-3.4335 -75.537,-8.0114 -21.745,-4.578 -22.89,-4.0058 -22.89,-4.0058 0,0 27.468,10.873 39.485,12.59 12.017,1.7167 -15.451,3.4334 -24.034,1.1445 -8.5837,-2.289 8.5838,9.1559 31.474,13.734 22.89,4.578 133.91,20.029 136.77,19.456 2.8613,-0.5723 8.5837,-14.306 5.7225,-20.029 -2.8612,-5.7224 -14.306,-28.04 -25.751,-30.901 -11.445,-2.8612 -26.323,4.578 -32.046,6.2947 -5.7224,1.7168 -33.19,9.7282 -33.19,9.7282 z"
         id="path109"
         inkscape:connector-curvature="0"
         style="fill:#33241c" />
    </g>
    <path
       d="m 1256.2,7663.7 c 0,0 -13.04,-59.511 -32.462,-82.98 -19.423,-23.469 -76.889,-31.372 -187.76,-30.563 -110.87,0.8093 -115.98,19.914 -145.92,58.759 -29.943,38.845 16.382,168.77 16.382,168.77 0,0 282.59,166.02 349.76,-113.99 z"
       id="path113"
       inkscape:connector-curvature="0"
       style="fill:none;stroke:#1c1f24;stroke-width:20" />
    <path
       d="m 1219.6,7542.2 c 24.049,-23.611 3.55,-60.83 -67.98,-75.263 0,0 21.374,20.772 28.325,25.088 -42.376,28.25 -211.22,-72.026 -236.31,30.753 110.06,-2.4279 275.96,19.423 275.96,19.423 z"
       id="path115"
       inkscape:connector-curvature="0"
       style="fill:none;stroke:#1c1f24;stroke-width:20" />
    <path
       d="m 1667.1,7070.4 c 0,0 -87.402,-51.794 -114.92,-8.0928 -27.516,43.701 -9.7113,80.928 45.32,87.402 55.031,6.4742 -14.567,-16.186 -14.567,-16.186 0,0 -12.948,-17.804 -14.567,-24.278 -1.6185,-6.4743 22.66,-29.134 22.66,-29.134 l 38.845,-14.567 22.66,17.804 z"
       id="path117"
       inkscape:connector-curvature="0"
       style="fill:#33241c" />
    <path
       d="m 862.69,7545.5 c 0,0 -8.0928,-151.34 29.134,-193.42 37.227,-42.083 -61.505,-72.835 32.371,-234.69 0,0 37.227,38.845 105.21,-17.804 67.98,-56.65 110.06,-19.423 140.81,-14.567 30.753,4.8556 233.07,63.124 326.95,1.6185 0,0 27.516,90.639 123.01,66.361 -56.65,-22.66 -89.021,-50.175 3.2372,-90.639 0,0 102.28,11.264 92.258,221.74 -6.4743,135.96 61.505,221.74 61.505,221.74"
       id="path119"
       inkscape:connector-curvature="0"
       style="fill:none;stroke:#1c1f24;stroke-width:20" />
    <g
       id="g137">
      <path
         d="m 1404.9,7921.8 -9.7113,-98.732 30.753,3.2371 25.897,113.3 -12.948,6.4742 z"
         id="path121"
         inkscape:connector-curvature="0"
         style="fill:#a1733e;stroke:#000000;stroke-width:1px" />
      <path
         d="m 1230.1,7933.1 9.7114,-113.3 -35.608,12.948 -16.186,113.3 z"
         id="path123"
         inkscape:connector-curvature="0"
         style="fill:#a1733e;stroke:#000000;stroke-width:1px" />
      <path
         d="m 1322.4,7636.9 22.66,43.701 -24.278,234.69 -1.6185,55.031 19.423,-6.4742 21.041,-14.567 14.567,-265.44 -27.516,-58.268 z"
         id="path125"
         inkscape:connector-curvature="0"
         style="fill:#de9969" />
      <path
         d="m 1558.7,8070.7 9.7113,69.598 -32.371,-51.794 c 0,0 -38.846,-48.557 -92.258,-50.175 -25.759,2.7263 -17.909,0.2191 -23.064,-9.3067 -30.213,-0.2698 -58.896,-17.375 -90.639,-0.8093 -10.359,-7.5358 -5.1914,-17.3 -6.8789,-25.897 0,0 174.4,-35.608 235.5,68.384 z"
         id="path127"
         inkscape:connector-curvature="0"
         style="fill:#33241c" />
      <path
         d="m 1790,7836.3 -82.404,112.16 c 0,0 68.67,-9.1559 34.335,-4.5779 -34.335,4.5779 -84.693,61.803 -84.693,61.803 0,0 80.115,-18.312 61.803,-13.734 -18.312,4.578 -107.58,29.757 -125.89,100.72 -18.312,70.959 -66.381,98.426 -66.381,98.426 l -34.335,107.58 -11.445,-32.046 -38.913,57.225 c 0,0 29.757,-52.647 11.445,-43.491 -18.312,9.156 -59.514,36.624 -59.514,36.624 l 11.445,-25.179 -54.936,-18.312 22.89,34.335 -41.202,-32.046 -36.624,38.913 -16.023,-32.046 -29.757,20.601 -54.936,-41.202 c 0,0 25.179,112.16 151.07,139.63 125.891,27.47 11.445,-27.468 11.445,-27.468 0,0 48.069,4.578 68.67,13.734 20.601,9.1559 2.289,-34.335 2.289,-34.335 0,0 25.179,-2.2889 34.335,13.734 9.156,16.023 194.56,-153.36 217.45,-240.34 22.89,-86.982 22.89,-4.578 22.89,-4.578 0,0 89.271,-247.21 86.982,-286.12 z"
         id="path129"
         inkscape:connector-curvature="0"
         style="fill:#33241c" />
      <path
         d="m 1338.5,7636.9 12.948,42.082 -11.33,286.48 61.505,-29.134 -19.423,-157 -3.2371,-89.021 -30.753,-59.887 c 0,0 -4.8556,14.567 -9.7113,6.4743 z"
         id="path131"
         inkscape:connector-curvature="0"
         style="fill:#c78453" />
      <path
         d="m 1389.5,7734 42.892,89.83 -40.464,-8.0928 z"
         id="path133"
         inkscape:connector-curvature="0"
         style="fill:#c78453" />
      <path
         d="m 1321.9,7639.5 5.7225,49.213 -9.156,276.97 -78.97,-34.335 z"
         id="path135"
         inkscape:connector-curvature="0"
         style="fill:#edce81" />
    </g>
    <g
       id="g145"
       style="fill:none;stroke:#1c1f24;stroke-width:20">
      <path
         d="m 1318.3,7628.8 -31.043,0.3809 -24.033,46.924 -30.902,258.66 85.978,41.201 85.978,-41.201 -30.902,-258.66 -24.033,-46.924 z"
         id="path139"
         inkscape:connector-curvature="0" />
      <path
         d="m 1389.9,7816.7 34.948,13.93 28.138,119.75 -48.739,-15.597 z"
         id="path141"
         inkscape:connector-curvature="0" />
      <path
         d="m 1246.7,7816.7 -34.948,13.93 -28.138,119.75 48.739,-15.597 z"
         id="path143"
         inkscape:connector-curvature="0" />
    </g>
    <g
       id="g153">
      <path
         d="m 956.8,7955.4 c 0,0 2.289,37.768 36.624,80.115 34.335,42.346 21.745,101.86 21.745,101.86 l 21.745,-26.323 c 0,0 -1.1445,70.959 -13.734,91.56 -12.59,20.601 32.046,-2.289 32.046,-2.289 0,0 8.0115,83.548 43.491,101.86 35.4795,18.312 -25.179,-83.548 -14.878,-125.89 10.3,-42.346 -6.867,-105.29 54.936,-127.04 61.803,-21.75 -68.67,22.89 -68.67,19.456 0,-3.4334 -94.993,-117.88 -113.3,-113.3 z"
         id="path147"
         inkscape:connector-curvature="0"
         style="fill:#33241c" />
      <path
         d="m 1094.1,8117.9 38.913,-43.491 70.959,-18.312 75.537,-13.734 75.537,4.578 c 0,0 73.248,-2.289 93.848,9.1559 20.6,11.4449 82.404,18.312 89.271,41.202 6.8669,22.89 16.023,59.514 4.5779,70.959 -11.445,11.445 -27.468,64.092 -52.647,70.959 -25.179,6.867 -52.647,38.913 -68.67,36.624 -16.023,-2.289 -45.78,-18.312 -45.78,-18.312 l -32.046,-11.445 -9.1559,-2.289 18.312,-20.601 h 22.89 l 11.445,-11.445 -11.445,-20.601 -38.913,-9.1559 h -38.913 l -29.757,4.578 -20.601,13.734 6.8669,18.312 29.757,4.578 16.023,18.312 -6.8669,6.867 -36.624,6.8669 -29.757,18.312 -61.803,-27.468 -48.069,-50.358 -27.468,-54.936 z"
         id="path149"
         inkscape:connector-curvature="0"
         style="fill:#de9969" />
      <path
         d="m 1537.6,8135.4 c 0,0 -110.06,124.63 -155.38,110.06 -45.32,-14.567 17.804,24.278 17.804,24.278 0,0 53.412,6.4743 64.742,-12.948 11.33,-19.423 80.928,-77.691 80.928,-89.021 0,-11.33 -8.0928,-32.371 -8.0928,-32.371 z"
         id="path151"
         inkscape:connector-curvature="0"
         style="fill:#c78453" />
    </g>
    <g
       id="g161"
       style="fill:none;stroke:#1c1f24;stroke-width:20">
      <path
         d="m 1782,7620.7 c 0,0 27.516,79.309 1.6186,144.05 -25.897,64.742 -76.072,165.09 -139.2,210.41 0,0 -69.598,55.031 -64.742,105.21 1.1987,8.9906 -100.72,-167.03 -261.4,-84.165"
         id="path155"
         inkscape:connector-curvature="0" />
      <path
         d="m 1307.5,8039.7 c -10.323,0.01 -25.34,0.2017 -44.674,2.2021 -2.6081,0.2698 -9.8727,12.59 -12.637,12.929 -7.6233,0.9365 -11.259,-9.8637 -20.044,-8.2828 -2.3972,0.4314 -4.8106,13.619 -8.3899,14.244 -3.5968,0.6275 -8.3597,-11.308 -10.844,-10.77 -28.817,6.2385 -59.72,16.175 -87.652,31.946 -107.19,60.52 76.543,225.95 126.25,179.66 20.694,-19.272 48.047,-16.738 48.047,-16.738 -1.7168,-38.913 -37.768,-23.463 -37.768,-23.463 0,0 -43.209,-42.918 58.51,-42.918 101.719,0 58.51,42.918 58.51,42.918 0,0 -36.051,-15.45 -37.768,23.463 0,0 27.353,-2.534 48.047,16.738 49.703,46.287 233.44,-119.14 126.25,-179.66 -24.532,-13.851 -52.843,-23.308 -80.225,-29.726 -2.5764,-0.6039 -10.867,9.6918 -13.423,9.1405 -4.2191,-0.9099 -2.6825,-12.622 -6.8177,-13.397 -28.561,-5.3495 -54.702,-7.5918 -72.614,-8.4 -4.9261,-0.2223 -2.4921,11.672 -6.3437,11.611 -10.567,-0.1672 -15.614,-11.312 -15.614,-11.312 0,0 -3.9008,-0.1892 -10.795,-0.1836 z"
         id="path157"
         inkscape:connector-curvature="0" />
      <path
         d="m 854.6,7620.7 c 0,0 -27.516,79.309 -1.6186,144.05 25.897,64.742 76.072,165.09 139.2,210.41 0,0 69.598,55.031 64.742,105.21 -1.1987,8.9906 100.72,-167.03 261.4,-84.165"
         id="path159"
         inkscape:connector-curvature="0" />
    </g>
    <path
       d="m 1160.5,8101.9 c 65.242,48.931 173.65,67.11 241.96,73.857 l 60.182,-34.943 1.2714,-0.1914 c -5.586,-1.0692 -179.55,-34.218 -303.42,-38.723 z"
       id="path163"
       inkscape:connector-curvature="0"
       style="fill:#c78453" />
    <path
       d="m 1167.4,8084.7 c 0,0 113.88,51.502 295.85,38.913"
       id="path165"
       inkscape:connector-curvature="0"
       style="fill:none;stroke:#1c1f24;stroke-width:35" />
    <path
       d="m 1498.8,7601.3 c 0,0 -6.4743,33.99 34.799,36.418 41.273,2.4279 44.51,-41.273 44.51,-41.273 l -31.562,-11.33 z"
       id="path167"
       style="fill:url(#radialGradient1149)"
       inkscape:connector-curvature="0" />
    <path
       d="m 1475.3,7610.2 c 0,0 56.65,-62.314 152.14,10.521"
       id="path169"
       inkscape:connector-curvature="0"
       style="fill:none;stroke:#1c1f24;stroke-width:20" />
    <circle
       cx="1536"
       cy="7604.5"
       r="12.139"
       style="opacity:0.98799995;fill-opacity:0.98769998;paint-order:markers stroke fill"
       id="circle171" />
    <path
       d="m 1142.6,7625.3 c 0,0 6.4743,33.99 -34.799,36.418 -41.273,2.4279 -44.51,-41.273 -44.51,-41.273 l 31.562,-11.33 z"
       id="path173"
       style="fill:url(#radialGradient1151)"
       inkscape:connector-curvature="0" />
    <circle
       transform="scale(-1,1)"
       cx="-1105.3"
       cy="7628.6001"
       r="12.139"
       style="opacity:0.98799995;fill-opacity:0.98769998;paint-order:markers stroke fill"
       id="circle175" />
    <path
       d="m 1166,7634.2 c 0,0 -56.65,-62.314 -152.14,10.521"
       id="path177"
       inkscape:connector-curvature="0"
       style="fill:none;stroke:#1c1f24;stroke-width:20" />
    <path
       d="m 1468,7609.4 c 0,0 74.454,97.114 166.71,9.7114 30.753,-17.804 -89.021,157 -166.71,-9.7114 z"
       id="path179"
       inkscape:connector-curvature="0"
       style="fill:#c78453" />
    <g
       id="g189"
       style="fill:#33241c">
      <path
         d="m 1318.5,7996.6 c 0,0 -12.589,21.745 -34.335,25.179 -21.746,3.434 -36.624,11.445 -36.624,11.445 l -19.456,-10.3 -14.878,12.589 c 0,0 8.0114,-45.78 45.78,-44.635 37.7686,1.145 51.502,20.601 59.514,5.7225 z"
         id="path181"
         inkscape:connector-curvature="0" />
      <path
         d="m 1281.9,6766.1 c 0,0 150.53,-29.134 140.81,55.031 -9.7114,84.165 -72.835,111.68 -72.835,111.68 0,0 105.21,-9.7114 113.3,-48.557 8.09,-38.8456 30.753,71.217 -11.33,89.021 -42.083,17.804 46.938,0 46.938,0 0,0 134.34,-273.54 -216.89,-207.18 z"
         id="path183"
         inkscape:connector-curvature="0" />
      <path
         d="m 915.6,6945.9 c -9.76,44.929 -32.046,144.21 59.514,146.5 91.56,2.289 50.358,-119.03 157.94,-56.08 -11.445,-41.202 -67.663,-86.928 -138.48,-25.179 -60.113,52.412 -4.578,-62.947 -4.578,-62.947 l -51.502,32.046 37.768,-68.67 -40.057,36.624 v -24.034 c 0,0 -18.481,11.988 -20.601,21.745 z"
         id="path185"
         inkscape:connector-curvature="0" />
      <path
         d="m 913.31,7008.9 c 0,0 -24.034,107.58 -45.78,172.82 -21.745,65.236 3.4335,139.63 3.4335,139.63 0,0 -32.046,-54.936 -32.046,-88.126 0,-33.19 0,70.959 18.312,119.03 -18.312,-35.479 -44.635,-78.97 -24.034,-175.11 33.354,-155.65 70.959,-155.65 78.97,-264.38 -2.289,74.392 1.1445,96.138 1.1445,96.138 z"
         id="path187"
         inkscape:connector-curvature="0" />
    </g>
    <path
       d="m 1175.2,7637.7 c 0,0 -74.454,97.114 -166.71,9.7114 -30.753,-17.804 89.021,157 166.71,-9.7114 z"
       id="path191"
       inkscape:connector-curvature="0"
       style="fill:#c78453" />
    <path
       d="m 994.57,7865 c 0,0 117.88,20.601 117.88,48.069 0,27.468 -43.491,17.167 -68.67,9.156 C 1018.601,7914.2135 994.567,7865 994.567,7865 Z"
       id="path193"
       inkscape:connector-curvature="0"
       style="fill:#edce81" />
  </g>
</svg>
