<?xml version="1.0" encoding="UTF-8" standalone="no"?>
<!-- Generator: Adobe Illustrator 19.0.0, SVG Export Plug-In . SVG Version: 6.00 Build 0)  -->

<svg
   xmlns:dc="http://purl.org/dc/elements/1.1/"
   xmlns:cc="http://creativecommons.org/ns#"
   xmlns:rdf="http://www.w3.org/1999/02/22-rdf-syntax-ns#"
   xmlns:svg="http://www.w3.org/2000/svg"
   xmlns="http://www.w3.org/2000/svg"
   xmlns:sodipodi="http://sodipodi.sourceforge.net/DTD/sodipodi-0.dtd"
   xmlns:inkscape="http://www.inkscape.org/namespaces/inkscape"
   version="1.1"
   id="Layer_1"
   x="0px"
   y="0px"
   viewBox="0 0 511.999 511.999"
   style="enable-background:new 0 0 511.999 511.999;"
   xml:space="preserve"
   sodipodi:docname="chat.svg"
   inkscape:version="0.92.4 5da689c313, 2019-01-14"><metadata
   id="metadata79"><rdf:RDF><cc:Work
       rdf:about=""><dc:format>image/svg+xml</dc:format><dc:type
         rdf:resource="http://purl.org/dc/dcmitype/StillImage" /><dc:title></dc:title></cc:Work></rdf:RDF></metadata><defs
   id="defs77">
	

	

	

	

	

	

	
















		
	
		
	
		
	
		
	
		
	
		
	
		
	</defs><sodipodi:namedview
   pagecolor="#ffffff"
   bordercolor="#666666"
   borderopacity="1"
   objecttolerance="10"
   gridtolerance="10"
   guidetolerance="10"
   inkscape:pageopacity="0"
   inkscape:pageshadow="2"
   inkscape:window-width="916"
   inkscape:window-height="480"
   id="namedview75"
   showgrid="false"
   inkscape:zoom="0.46093841"
   inkscape:cx="255.9995"
   inkscape:cy="255.9995"
   inkscape:window-x="0"
   inkscape:window-y="0"
   inkscape:window-maximized="0"
   inkscape:current-layer="Layer_1" />
<path
   d="M 372.29,50.758 H 28.831 C 12.933,50.758 0,63.691 0,79.588 v 206.056 c 0,15.897 12.933,28.831 28.831,28.831 h 22.271 v 76.71 c 0,4.884 2.942,9.289 7.456,11.159 1.494,0.62 3.064,0.92 4.62,0.92 3.144,0 6.232,-1.228 8.543,-3.538 l 85.251,-85.25 h 17.104 c 6.671,0 12.078,-5.407 12.078,-12.078 0,-6.672 -5.409,-12.079 -12.078,-12.079 0,0 -22.69,0.016 -22.927,0.04 -2.812,0.191 -5.572,1.349 -7.722,3.498 l -68.169,68.169 c 0,0 -0.021,-60.392 -0.06,-60.705 -0.545,-6.166 -5.717,-11.002 -12.024,-11.002 H 28.831 c -2.578,0 -4.674,-2.097 -4.674,-4.674 V 79.588 c 0,-2.578 2.097,-4.674 4.674,-4.674 H 372.29 c 2.578,0 4.674,2.097 4.674,4.674 v 79.055 c 0,6.671 5.409,12.078 12.078,12.078 6.669,0 12.078,-5.407 12.078,-12.078 V 79.588 c 0,-15.897 -12.933,-28.83 -28.83,-28.83 z"
   id="path2"
   inkscape:connector-curvature="0"
   style="fill:#ffffff" />
<path
   d="M 483.169,198.492 H 242.754 c -15.897,0 -28.831,12.933 -28.831,28.831 v 140.57 c 0,15.897 12.933,28.831 28.831,28.831 h 150.514 l 60.98,60.98 c 2.311,2.311 5.4,3.538 8.543,3.538 1.556,0 3.126,-0.301 4.62,-0.92 4.512,-1.87 7.456,-6.273 7.456,-11.159 v -52.44 h 8.301 c 15.897,0 28.831,-12.933 28.831,-28.831 v -140.57 c 10e-4,-15.897 -12.932,-28.83 -28.83,-28.83 z m 4.675,169.401 c 0,2.577 -2.097,4.674 -4.674,4.674 h -20.376 c -6.356,0 -11.554,4.912 -12.031,11.147 -0.031,0.264 -0.051,36.29 -0.051,36.29 l -43.854,-43.855 c -0.046,-0.046 -0.094,-0.089 -0.14,-0.135 -0.172,-0.168 -0.335,-0.314 -0.489,-0.445 -2.126,-1.864 -4.903,-3.003 -7.951,-3.003 H 242.754 c -2.578,0 -4.674,-2.097 -4.674,-4.674 v -140.57 c 0,-2.578 2.097,-4.674 4.674,-4.674 H 483.17 c 2.577,0 4.674,2.097 4.674,4.674 z"
   id="path8"
   inkscape:connector-curvature="0"
   style="fill:#ffffff" />
<path
   d="m 362.964,285.53 c -6.667,0 -12.078,5.411 -12.078,12.078 0,6.667 5.411,12.078 12.078,12.078 6.668,0 12.078,-5.411 12.078,-12.078 0,-6.667 -5.411,-12.078 -12.078,-12.078 z"
   id="path14"
   inkscape:connector-curvature="0"
   style="fill:#ffffff" />
<path
   d="m 310.472,130.611 c 0,0 -219.822,0 -219.822,0 -6.67,0 -12.078,5.407 -12.078,12.078 0,6.671 5.409,12.078 12.078,12.078 h 219.822 c 6.67,0 12.078,-5.407 12.078,-12.078 0,-6.671 -5.408,-12.078 -12.078,-12.078 z"
   id="path20"
   inkscape:connector-curvature="0"
   style="fill:#ffffff" />
<path
   d="M 174.075,210.465 H 90.65 c -6.67,0 -12.078,5.407 -12.078,12.078 0,6.671 5.409,12.078 12.078,12.078 h 83.425 c 6.671,0 12.078,-5.407 12.078,-12.078 0,-6.671 -5.408,-12.078 -12.078,-12.078 z"
   id="path26"
   inkscape:connector-curvature="0"
   style="fill:#ffffff" />
<path
   d="m 306.837,285.53 c -6.666,0 -12.078,5.411 -12.078,12.078 0,6.667 5.412,12.078 12.078,12.078 6.668,0 12.078,-5.411 12.078,-12.078 0,-6.667 -5.41,-12.078 -12.078,-12.078 z"
   id="path32"
   inkscape:connector-curvature="0"
   style="fill:#ffffff" />
<path
   d="m 419.079,285.53 c -6.667,0 -12.078,5.411 -12.078,12.078 0,6.667 5.411,12.078 12.078,12.078 6.668,0 12.078,-5.411 12.078,-12.078 0,-6.667 -5.411,-12.078 -12.078,-12.078 z"
   id="path38"
   inkscape:connector-curvature="0"
   style="fill:#ffffff" />















</svg>